<?xml version="1.0" standalone="no"?>
<!DOCTYPE svg PUBLIC "-//W3C//DTD SVG 20010904//EN"
 "http://www.w3.org/TR/2001/REC-SVG-20010904/DTD/svg10.dtd">
<svg version="1.0" xmlns="http://www.w3.org/2000/svg"
 width="700.000000pt" height="700.000000pt" viewBox="0 0 700.000000 700.000000"
 preserveAspectRatio="xMidYMid meet">
<metadata>
Created by potrace 1.14, written by Peter Selinger 2001-2017
</metadata>
<g transform="translate(0.000000,700.000000) scale(0.100000,-0.100000)"
fill="#000000" stroke="none">
<path d="M801 5868 c-11 -28 -1 -331 13 -403 2 -11 7 -42 10 -70 7 -57 16
-120 22 -150 2 -11 7 -33 10 -50 12 -70 61 -243 83 -300 92 -227 202 -418 293
-507 101 -99 253 -158 515 -198 76 -12 215 -37 308 -56 94 -18 187 -36 208
-39 20 -3 53 -7 73 -10 20 -3 64 -8 98 -11 33 -3 77 -9 96 -13 57 -11 166 -6
183 7 20 17 12 61 -33 167 -5 11 -18 42 -30 70 -25 58 -65 213 -80 305 -32
206 -80 364 -147 492 -46 87 -96 133 -170 154 -278 79 -487 149 -618 209 -257
117 -415 201 -654 348 -132 82 -166 92 -180 55z"/>
<path d="M6006 5805 c-197 -121 -280 -167 -451 -250 -273 -132 -435 -193 -740
-280 -147 -42 -175 -61 -228 -155 -18 -30 -32 -57 -32 -60 0 -3 -3 -10 -7 -15
-32 -51 -87 -251 -118 -430 -26 -149 -40 -197 -102 -360 -28 -71 -52 -137 -53
-146 -7 -33 19 -52 71 -53 48 0 188 11 235 19 13 2 47 7 74 10 76 9 169 24
249 41 39 9 80 17 91 19 44 8 142 25 179 31 21 3 47 7 56 9 10 2 40 7 67 11
26 5 50 9 53 9 3 1 23 5 45 9 147 29 292 96 369 171 173 171 337 534 401 890
31 170 53 560 33 598 -16 31 -51 18 -192 -68z"/>
<path d="M1357 3158 c-21 -16 -22 -42 -13 -273 24 -562 22 -907 -5 -1145 -5
-52 -12 -106 -14 -120 -2 -14 -11 -74 -20 -135 -9 -60 -23 -153 -31 -205 -27
-166 -27 -170 15 -170 40 0 274 56 379 91 211 69 339 148 411 254 48 69 53 99
56 285 3 162 6 202 21 287 6 34 27 49 42 30 43 -55 201 -372 224 -448 16 -55
56 -93 115 -110 72 -21 328 -18 563 6 151 15 230 19 400 20 107 0 231 -4 275
-8 116 -12 179 -18 232 -23 135 -12 390 -11 441 2 81 21 98 37 134 127 58 145
212 437 234 444 30 10 46 -106 48 -347 l2 -165 33 -62 c71 -132 216 -226 470
-304 51 -16 103 -31 115 -33 12 -2 39 -9 61 -14 53 -15 90 -22 146 -28 37 -5
47 -3 53 11 3 9 4 20 2 23 -2 4 -7 36 -11 72 -4 36 -8 67 -10 70 -2 3 -6 30
-10 60 -4 30 -8 57 -10 60 -2 3 -6 34 -10 70 -4 36 -8 67 -10 70 -2 3 -6 33
-10 65 -4 33 -8 71 -10 85 -5 38 -15 145 -21 235 -6 92 -6 509 0 665 6 149 18
451 18 475 2 98 -26 111 -157 70 -27 -9 -108 -34 -180 -55 -359 -105 -543
-165 -615 -199 -132 -63 -250 -237 -395 -581 -37 -89 -67 -146 -76 -148 -20
-4 -36 34 -128 298 -80 231 -95 266 -132 292 -46 34 -100 40 -424 42 -472 4
-532 -5 -578 -95 -9 -19 -54 -140 -100 -269 -45 -129 -87 -244 -93 -254 -20
-33 -39 -11 -78 85 -152 374 -281 567 -421 633 -57 28 -139 54 -495 163 -377
114 -406 121 -433 101z"/>
</g>
</svg>
